# xmcd CD database file
#
# Track frame offsets:
#	183
#	15158
#	29728
#
# Disc length: 694 seconds
#
# Revision: 0
# Processed by: cddbd v1.5.1PL0 Copyright (c) Steve Scherf et al.
# Submitted via: CDex 1.51
#
DISCID=1802b403
DTITLE=Dolly Parton - Straight Talk
DYEAR=1992
DGENRE=Country
TTITLE0=Straight Talk
TTITLE1=Burning to be burned
TTITLE2=Livin' a lie
EXTD=YEAR: 1992
EXTT0=
EXTT1=
EXTT2=
PLAYORDER=
